<svg width="55" height="51" viewBox="0 0 55 51" fill="none" xmlns="http://www.w3.org/2000/svg">
<path d="M43.5532 17.7604L28.0003 4.86811L12.4475 17.7604V24.5453H8.69965V20.867L6.39176 22.7805L4 19.8951L28.0003 0L52.0007 19.8951L49.6089 22.7805L47.301 20.867V24.5453H43.5532V17.7604ZM17.6943 47.9685H26.2202V44.2206H21.4418V38.9738H26.2202V35.2263H21.4418V31.4785H26.2202V27.731H17.6943V47.9685ZM42.0543 31.4785H45.1462V47.9685H48.8937V31.4785H51.9857V27.731H42.0543V31.4785ZM12.0666 38.4212L15.3216 47.9685H11.362L8.29572 38.9742H7.76287V47.9685H4.01501V27.731H9.6368C12.7365 27.731 15.2582 30.2528 15.2582 33.3524C15.2582 35.5823 13.953 37.513 12.0666 38.4212ZM7.76287 35.2263H9.6368C10.6699 35.2263 11.5104 34.3855 11.5104 33.3524C11.5104 32.3193 10.6699 31.4785 9.6368 31.4785H7.76287V35.2263ZM35.9641 37.1797L32.5726 27.8409L32.4975 27.868V27.731H28.75V47.9685H32.4975V38.6131L35.8894 47.9523L35.9641 47.9252V47.9685H39.7119V27.731H35.9641V37.1797Z" fill="#3B3C45"/>
<mask id="mask0_2_553" style="mask-type:alpha" maskUnits="userSpaceOnUse" x="4" y="0" width="49" height="48">
<path d="M43.5532 17.7604L28.0003 4.86811L12.4475 17.7604V24.5453H8.69965V20.867L6.39176 22.7805L4 19.8951L28.0003 0L52.0007 19.8951L49.6089 22.7805L47.301 20.867V24.5453H43.5532V17.7604ZM17.6943 47.9685H26.2202V44.2206H21.4418V38.9738H26.2202V35.2263H21.4418V31.4785H26.2202V27.731H17.6943V47.9685ZM42.0543 31.4785H45.1462V47.9685H48.8937V31.4785H51.9857V27.731H42.0543V31.4785ZM12.0666 38.4212L15.3216 47.9685H11.362L8.29572 38.9742H7.76287V47.9685H4.01501V27.731H9.6368C12.7365 27.731 15.2582 30.2528 15.2582 33.3524C15.2582 35.5823 13.953 37.513 12.0666 38.4212ZM7.76287 35.2263H9.6368C10.6699 35.2263 11.5104 34.3855 11.5104 33.3524C11.5104 32.3193 10.6699 31.4785 9.6368 31.4785H7.76287V35.2263ZM35.9641 37.1797L32.5726 27.8409L32.4975 27.868V27.731H28.75V47.9685H32.4975V38.6131L35.8894 47.9523L35.9641 47.9252V47.9685H39.7119V27.731H35.9641V37.1797Z" fill="#3B3C45"/>
</mask>
<g mask="url(#mask0_2_553)">
<rect x="0.399597" y="25.1998" width="54.0008" height="25.2004" fill="#F7A804"/>
</g>
</svg>
